<svg xmlns="http://www.w3.org/2000/svg" viewBox="0 0 427.71 427.49"><defs><style>.cls-1{fill:#93b2dd;}.cls-2{fill:#000306;}.cls-3{fill:#718fc8;}.cls-4{fill:#4164ae;}.cls-5{fill:#2f50a3;}.cls-6{fill:#217cbd;}.cls-7{fill:#1957a7;}</style></defs><title>Logo</title><g id="Layer_2" data-name="Layer 2"><g id="Layer_1-2" data-name="Layer 1"><path class="cls-1" d="M226.74,0l-.94,1.46C251.39,15.82,268,40,289.19,59.26c8.23,7.48,15.62,15.89,23.4,23.87-2.32-.3-4.68-.43-7-.92C256.1,71.39,206.55,71.59,157.5,84.08,135.38,89.71,114,98.34,92.33,105.61q47-47.25,94.12-94.43C190.64,7,195.68,3.7,200.32,0h4.07c0,.5.06,1,.1,1.5L206.42,0Z"/><path class="cls-2" d="M206.42,0l-1.93,1.5c0-.5-.07-1-.1-1.5Z"/><path class="cls-3" d="M92.33,105.61c21.7-7.27,43.05-15.9,65.17-21.53,49.05-12.49,98.6-12.69,148.13-1.87,2.28.49,4.64.62,7,.92C347.4,117.69,382.41,152,416.77,187c4.8,4.89,6.35,13,9.4,19.58-.48,2.66-.95,5.32-1.75,9.79-4.76-4.51-7.76-7.65-11.05-10.45-41.09-35.11-88.46-55.76-142.25-61.55-13.66-6.15-26.78-14.68-41.11-18-33-7.61-60.63,5.09-84.12,28.12-20.28,7.34-41.84,12.33-60.53,22.57-28.31,15.52-54.62,34.7-81.78,52.32-6.28-15.54-4.51-30.54,7-42.38C37.29,159.41,65,132.7,92.33,105.61Z"/><path class="cls-3" d="M158.09,351.66V287.83c14.36,5,28.41,11.8,43.22,14.52,27.87,5.12,52.38-4.49,73.88-22.33,27.22,4.11,53.58,10.94,77.69,24.8l-50.73,50.84c-2.16-1.4-4.15-3.47-6.52-4.08-29.23-7.57-59.07-9.79-89-7.68C190.33,345.05,174.25,349,158.09,351.66Z"/><path class="cls-1" d="M158.09,351.66c16.16-2.67,32.24-6.61,48.51-7.76,30-2.11,59.8.11,89,7.68,2.37.61,4.36,2.68,6.52,4.08-20,20.15-39.67,40.69-60.17,60.34-16,15.38-39.53,15.16-56.08.27-8.54-7.68-16.59-16-24.44-24.36a14.55,14.55,0,0,1-3.54-8.79C157.6,372.64,158,362.15,158.09,351.66Z"/><path class="cls-4" d="M271.12,144.4c53.79,5.79,101.16,26.44,142.25,61.55,3.29,2.8,6.29,5.94,11.05,10.45.8-4.47,1.27-7.13,1.75-9.79,3.74,11.56.34,22-6.64,30.85-6.57,8.31-14.71,15.39-22.16,23-5.44-3.28-10.9-6.55-16.33-9.85-24-14.59-48.84-27-76.88-31.65C304.26,189.19,293.13,164.38,271.12,144.4Z"/><path class="cls-4" d="M3.58,229.43c27.16-17.62,53.47-36.8,81.78-52.32,18.69-10.24,40.25-15.23,60.53-22.57-17.88,21.09-22.75,46.25-22.78,72.92l-2.1,1.65c-3.57.94-7.42,1.31-10.66,2.91-24.15,12-48.17,24.19-72.24,36.33Z"/><path class="cls-5" d="M304.16,219c28,4.69,52.91,17.06,76.88,31.65,5.43,3.3,10.89,6.57,16.33,9.85l-44.49,44.36C328.77,291,302.41,284.13,275.19,280,292,263.08,301.57,242.66,304.16,219Z"/><path class="cls-5" d="M269.14,211.22c1.61,31.28-21.44,56.78-53,58.65-30,1.78-55.05-21.1-58-52.88C194.86,209.08,231.82,206.66,269.14,211.22Z"/><path class="cls-4" d="M269.14,211.22c-37.32-4.56-74.28-2.14-110.95,5.77-1.69-31,22.36-57.76,52.7-58.62C242.94,157.47,268.74,180.88,269.14,211.22Z"/><path class="cls-5" d="M38.11,268.35C62.18,256.21,86.2,244,110.35,232c3.24-1.6,7.09-2,10.66-2.91,0,13.88-.16,27.76.16,41.63.15,6.62,1.26,13.21,1.93,19.81,0,1.36.07,2.73.11,4.09l-2.1.14L81,311.11Q59.56,289.72,38.11,268.35Z"/><path class="cls-3" d="M81,311.11l40.11-16.33c0,4.06.1,8.11-.07,12.16-.56,14.09-1.21,28.18-1.83,42.27Z"/><path class="cls-6" d="M119.21,349.21c.62-14.09,1.27-28.18,1.83-42.27.17-4.05.06-8.1.07-12.16l2.1-.14v59.45Z"/><path class="cls-7" d="M123.1,290.55c-.67-6.6-1.78-13.19-1.93-19.81-.32-13.87-.14-27.75-.16-41.63l2.1-1.65Q123.11,259,123.1,290.55Z"/></g></g></svg>