<svg xmlns="http://www.w3.org/2000/svg" viewBox="0 0 438 396"><defs><style>.cls-1,.cls-2{fill:#ccd6ee;}.cls-1{opacity:0;}.cls-2{opacity:0.65;}.cls-3{fill:#467cbf;}.cls-4{fill:#ceddf1;}.cls-5{fill:#fefefe;}.cls-6{fill:#ccdaef;}.cls-7{fill:#cedcf1;}</style></defs><title>Asset 3</title><g id="Layer_2" data-name="Layer 2"><g id="Layer_1-2" data-name="Layer 1"><rect class="cls-1" width="438" height="396"/><path class="cls-2" d="M380.66,277.53c39.84-55.26,28.07-142.76-14.8-173.73-27.08-19.55-45.37-1.25-116.48-15.21C177.23,74.42,167.66,50,135.59,55.92,71.39,67.76-.27,185.89,38.22,268.7,84,367.11,249,337.59,267.22,334.34,300.92,328.32,350.43,319.46,380.66,277.53Z"/><path class="cls-3" d="M361.25,165.68H340.61v62c-.59.05-1,.12-1.5.12-5.9,0-11.81,0-17.72,0-1.43,0-1.7-.49-1.7-1.8q.06-29.15,0-58.3v-2.08H299.19v2q0,29.07,0,58.15c0,1.53-.34,2-2,2q-19-.11-37.94,0c-1.41,0-1.83-.38-1.83-1.82q.06-39.79,0-79.6c0-.5.05-1,.08-1.6H382v81c0,2,0,2-2.06,2-5.65,0-11.3-.05-17,0-1.44,0-1.81-.41-1.81-1.83q.07-29.15,0-58.3Z"/><path class="cls-3" d="M195.46,227.83v20.58H154V144.84h83v1.72q0,39.72,0,79.43c0,1.56-.52,1.87-2,1.87-12.49-.06-25,0-37.46,0Zm.08-21H216V165.56h-1.65c-5.7,0-11.4.05-17.09,0-1.44,0-1.83.41-1.82,1.84,0,12.59,0,25.18,0,37.77C195.46,205.7,195.51,206.25,195.54,206.87Z"/><path class="cls-3" d="M112.48,165.66H91.88v62.05H50.42V144.83h82.85v1.88q0,39.56,0,79.13c0,1.51-.29,2.06-1.94,2-5.7-.11-11.4-.09-17.1,0-1.46,0-1.81-.43-1.81-1.84q.06-29.15,0-58.3Z"/><path class="cls-4" d="M304.87,230.4c-6.83-3.35-13.61-4.56-20.57-.27,2.38-3.27,5-6.18,9.05-6.84C299.07,222.37,302,226.27,304.87,230.4Z"/><path class="cls-4" d="M283.57,230.85c0,.05.09.11.08.15s-.07.09-.1.14S283.56,231,283.57,230.85Z"/><path class="cls-5" d="M233.85,269.38a71,71,0,0,1,6.82-3.87,74.13,74.13,0,0,1,7.59-2.45c-2.77-8.35-2.21-16.16,5.27-21.9,7.32-5.61,14.93-3.36,22.55.36-.36-2-.77-3.85-1-5.72-.54-4.25-.58-8.5,1-12.58,2.78-7.26,8.48-10.89,15.8-12.34a22.37,22.37,0,0,1,10.9.6c7.44,2.25,11.29,7.83,13,15,1,3.89,1.16,7.95,1.7,11.95.32-.29.8-.76,1.31-1.21,6.85-6.09,14.74-7.35,23.22-4.46,7,2.38,10.68,8.38,10.4,15.92-.05,1.41-.21,2.81-.33,4.35,5.64-2.22,11.34-3.69,17.17-1.06s8.59,7.68,10.49,13.54c2.52-1,4.95-2.11,7.47-2.95,4.47-1.49,9-2.59,13.82-1.74,6.75,1.18,10.82,7.12,9.23,13.77a7.85,7.85,0,0,1-5.06,5.93,79.17,79.17,0,0,1-9.12,2c-2.92-.37-5.84-.89-8.77-1.08-2-.14-3.84-1.21-6.15-.15-8.25,3.82-16.86,4.57-25.45,1.18-3.4-1.34-6.49-3.48-9.37-5.07-4.08,2.65-8,5.76-12.39,7.92-6.52,3.23-13.62,4.12-20.94,3.84a63.57,63.57,0,0,1-21.16-4.54,4,4,0,0,0-3.82.18,24.94,24.94,0,0,1-11.54,3.46c-7.19.22-12.62-3-16.12-9.28-.84-1.52-1.53-1.65-3-.94a38,38,0,0,1-6.13,2.3c-5.38,1.47-10.34.67-13.91-3.93C235.77,274.36,235,271.73,233.85,269.38Zm104.86-7-3.19,2.38c-6.47,4.78-13.64,5.09-21.12,3.25-2.19-.55-4.32-1.35-6.75-2.12.21.62.21,1,.41,1.18a98,98,0,0,0,8.08,6.78,9.8,9.8,0,0,0,7.93,1.46c7.18-1.69,11.35-6.81,14.65-12.92l.28-.41-.14-.09Zm-75.38,7.21L264,269c-6-6.33-5.33-13.44-2.61-20.91a22.38,22.38,0,0,0-3.3,2.94c-3.47,3.78-4.17,8.35-1.33,12.15C258.6,265.59,261.13,267.44,263.33,269.55Zm41.54-39.15c-2.83-4.13-5.8-8-11.52-7.11-4.09.66-6.67,3.57-9.05,6.84C291.26,225.84,298,227.05,304.87,230.4Zm-21.3.45,0,.29s.1-.09.1-.14S283.6,230.9,283.57,230.85Z"/><path class="cls-6" d="M233.85,269.38c1.14,2.35,1.92,5,3.48,7,3.57,4.6,8.53,5.4,13.91,3.93a38,38,0,0,0,6.13-2.3c1.47-.71,2.16-.58,3,.94,3.5,6.26,8.93,9.5,16.12,9.28A24.94,24.94,0,0,0,288,284.77a4,4,0,0,1,3.82-.18A63.57,63.57,0,0,0,313,289.13c7.32.28,14.42-.61,20.94-3.84,4.39-2.16,8.31-5.27,12.39-7.92,2.88,1.59,6,3.73,9.37,5.07,8.59,3.39,17.2,2.64,25.45-1.18,2.31-1.06,4.13,0,6.15.15,2.93.19,5.85.71,8.77,1.08-2.62-.06-5.26.05-7.86-.24a2.93,2.93,0,0,0-3.18,1.3c-3.73,5-8.51,8.58-14.84,9.58a27.21,27.21,0,0,1-16.11-2.69c-2.72-1.28-5.28-2.9-7.89-4.36-2.35,2.16-4.66,4.61-7.29,6.62-10.65,8.13-22.24,8.71-34.17,3.43-4.89-2.16-9.39-5.21-13.81-7.72-3.4,1.58-6.84,3.73-10.6,4.79-8.38,2.36-15.69-.46-22.09-5.93a1.93,1.93,0,0,0-2.77-.22c-4.25,2.57-8.7,4.7-13.84,4.78-6.67.11-11.35-3.83-12.48-10.43A11.63,11.63,0,0,1,233.85,269.38Z"/><path class="cls-7" d="M338.72,262.35c-3.3,6.11-7.47,11.23-14.65,12.92a9.8,9.8,0,0,1-7.93-1.46,98,98,0,0,1-8.08-6.78c-.2-.17-.2-.56-.41-1.18,2.43.77,4.56,1.57,6.75,2.12,7.48,1.84,14.65,1.53,21.12-3.25l3.19-2.38Z"/><path class="cls-4" d="M263.33,269.55c-2.2-2.11-4.73-4-6.53-6.37-2.84-3.8-2.14-8.37,1.33-12.15a22.38,22.38,0,0,1,3.3-2.94c-2.72,7.47-3.37,14.58,2.61,20.91Z"/><path class="cls-7" d="M338.71,262.34l.15-.49.14.09-.28.41Z"/></g></g></svg>