<svg xmlns="http://www.w3.org/2000/svg" viewBox="0 0 420 420"><defs><style>.cls-1,.cls-2{fill:#ccd6ee;}.cls-1{fill-opacity:0;}.cls-2{opacity:0.65;isolation:isolate;}.cls-3{fill:#467cbf;}.cls-4{fill:#ceddf1;}.cls-5{fill:#fefefe;}.cls-6{fill:#ccdaef;}.cls-7{fill:#cedcf1;}</style></defs><title>npm</title><g id="Layer_2" data-name="Layer 2"><g id="Layer_1-2" data-name="Layer 1"><g id="Layer_2-2" data-name="Layer 2"><g id="Layer_1-2-2" data-name="Layer 1-2"><rect class="cls-1" width="420" height="420"/><path class="cls-2" d="M365,294.35c38.2-58.61,26.91-151.41-14.2-184.26-26-20.73-43.5-1.32-111.69-16.13C170,78.93,160.77,53,130,59.31,68.46,71.87-.26,197.16,36.65,285c43.9,104.38,202.12,73.07,219.59,69.62C288.55,348.22,336,338.82,365,294.35Z"/><path class="cls-3" d="M346.4,175.72H326.61v65.76c-.56.05-1,.13-1.44.13h-17c-1.37,0-1.63-.52-1.63-1.91q.06-30.91,0-61.84v-2.2H286.89v63.79c0,1.63-.32,2.12-1.91,2.12q-18.23-.1-36.38,0c-1.36,0-1.76-.4-1.76-1.93q.06-42.19,0-84.42c0-.53,0-1.06.08-1.7H366.3v85.91c0,2.12,0,2.12-2,2.12-5.42,0-10.84-.05-16.31,0-1.38,0-1.73-.43-1.73-1.94q.06-30.92,0-61.83Z"/><path class="cls-3" d="M187.43,241.64v21.83H147.67V153.62h79.59v86.07c0,1.65-.5,2-1.92,2-12-.06-24,0-35.92,0Zm.07-22.27h19.62V175.59h-1.58c-5.46,0-10.93.06-16.39,0-1.38,0-1.75.44-1.74,2v40c0,.57.07,1.15.09,1.81Z"/><path class="cls-3" d="M107.86,175.7H88.1v65.81H48.35v-87.9h79.44v85.92c0,1.6-.27,2.18-1.86,2.12-5.46-.12-10.93-.1-16.39,0-1.4,0-1.74-.46-1.74-2q.06-30.91,0-61.84Z"/><path class="cls-4" d="M292.34,244.36c-6.55-3.55-13-4.83-19.72-.28,2.28-3.47,4.79-6.56,8.67-7.26C286.78,235.85,289.59,240,292.34,244.36Z"/><path class="cls-4" d="M271.92,244.84s.08.12.07.16a.85.85,0,0,1-.09.15S271.91,245,271.92,244.84Z"/><path class="cls-5" d="M224.24,285.71a67.56,67.56,0,0,1,6.54-4.11,65.72,65.72,0,0,1,7.28-2.6c-2.66-8.85-2.12-17.14,5.05-23.22,7-5.95,14.32-3.57,21.62.38-.34-2.12-.73-4.09-1-6.07-.52-4.51-.56-9,1-13.34,2.67-7.7,8.14-11.55,15.15-13.09a19.41,19.41,0,0,1,10.46.64c7.13,2.38,10.82,8.3,12.46,15.91,1,4.12,1.12,8.43,1.63,12.67.31-.31.77-.81,1.26-1.28,6.57-6.46,14.13-7.8,22.26-4.73,6.72,2.52,10.25,8.88,10,16.88-.05,1.5-.2,3-.32,4.62,5.41-2.36,10.87-3.92,16.47-1.13s8.23,8.15,10.05,14.36c2.42-1.06,4.75-2.24,7.17-3.13,4.28-1.58,8.63-2.74,13.25-1.84,6.47,1.25,10.37,7.55,8.85,14.6a8.15,8.15,0,0,1-4.85,6.29,68.39,68.39,0,0,1-8.75,2.12c-2.8-.39-5.6-.94-8.41-1.14-1.91-.15-3.68-1.29-5.89-.16-7.92,4.05-16.17,4.84-24.41,1.25-3.26-1.42-6.22-3.69-9-5.38-3.92,2.81-7.67,6.11-11.88,8.4C314,306,307.17,307,300.15,306.68a55.85,55.85,0,0,1-20.29-4.81,3.52,3.52,0,0,0-3.67.19,22.17,22.17,0,0,1-11.06,3.67c-6.9.23-12.1-3.18-15.46-9.84-.81-1.61-1.47-1.75-2.88-1a34,34,0,0,1-5.87,2.44c-5.16,1.56-9.92.71-13.34-4.17C226.08,291,225.34,288.2,224.24,285.71Zm100.55-7.43-3.06,2.53c-6.2,5.07-13.08,5.39-20.25,3.44-2.1-.58-4.14-1.43-6.47-2.25.2.66.2,1.07.39,1.26a95.47,95.47,0,0,0,7.75,7.19,8.67,8.67,0,0,0,7.6,1.55c6.89-1.8,10.89-7.23,14.05-13.71l.27-.43-.14-.1Zm-72.28,7.65.64-.63c-5.75-6.71-5.11-14.25-2.5-22.17a22.17,22.17,0,0,0-3.17,3.11c-3.32,4-4,8.86-1.27,12.89,1.76,2.56,4.19,4.52,6.3,6.76Zm39.83-41.52c-2.71-4.38-5.56-8.49-11-7.54-3.92.7-6.39,3.78-8.67,7.25,6.67-4.59,13.13-3.31,19.72.24Zm-20.42.47v.31s.09-.09.09-.15a.59.59,0,0,0-.09-.2Z"/><path class="cls-6" d="M224.24,285.71c1.09,2.49,1.84,5.3,3.34,7.42,3.42,4.88,8.18,5.73,13.34,4.17a34.81,34.81,0,0,0,5.87-2.44c1.41-.75,2.07-.62,2.88,1,3.36,6.64,8.56,10.07,15.46,9.84a22.26,22.26,0,0,0,11-3.67,3.52,3.52,0,0,1,3.67-.19,56,56,0,0,0,20.31,4.81c7,.3,13.82-.64,20.08-4.07,4.21-2.29,8-5.59,11.88-8.4,2.76,1.69,5.75,4,9,5.38,8.24,3.59,16.5,2.8,24.41-1.25,2.21-1.13,4,0,5.89.16,2.81.2,5.61.75,8.41,1.14-2.51-.06-5,.05-7.53-.25a2.7,2.7,0,0,0-3.05,1.37c-3.58,5.31-8.16,9.1-14.23,10.17A23.91,23.91,0,0,1,339.53,308c-2.61-1.36-5.06-3.07-7.57-4.62-2.25,2.29-4.47,4.89-7,7-10.21,8.62-21.32,9.24-32.76,3.64-4.69-2.29-9-5.53-13.25-8.19-3.26,1.68-6.55,4-10.16,5.08-8,2.5-15.05-.49-21.18-6.29a1.74,1.74,0,0,0-2.61-.28l0,.05c-4.07,2.72-8.34,5-13.27,5.07-6.4.11-10.88-4.07-12-11.07A13,13,0,0,1,224.24,285.71Z"/><path class="cls-7" d="M324.8,278.25c-3.16,6.48-7.16,11.91-14.05,13.7a8.63,8.63,0,0,1-7.6-1.55,95.47,95.47,0,0,1-7.75-7.19c-.19-.18-.19-.59-.39-1.25,2.33.82,4.37,1.67,6.47,2.25,7.17,2,14,1.62,20.25-3.45l3.06-2.52Z"/><path class="cls-4" d="M252.51,285.89c-2.11-2.24-4.54-4.25-6.26-6.76-2.73-4-2.06-8.88,1.27-12.89a22.17,22.17,0,0,1,3.17-3.11c-2.61,7.92-3.24,15.46,2.5,22.17Z"/><path class="cls-7" d="M324.79,278.24l.14-.52.14.1-.27.43Z"/></g></g></g></g></svg>